# xmcd CD database file
#
# Track frame offsets:
#	150
#	9847
#	23214
#	37419
#	51254
#	61850
#	73188
#	83635
#	96357
#	108608
#
# Disc length: 1623 seconds
#
# Revision: 0
# Processed by: cddbd v1.5.2PL0 Copyright (c) Steve Scherf et al.
# Submitted via: CDex 1.79
#
DISCID=8406550a
DTITLE=Various Artist - Sons that won the war String of Pearls (9177)
DYEAR=1990
DGENRE=Jazz
TTITLE0=A string of Pearls - Jerry Gray
TTITLE1=Tangerine - Jimmy Dorsey
TTITLE2=I don't want to walk without you - Helen Forrest
TTITLE3=Somebody Else is Taking my Place - Ozzie Nelson
TTITLE4=Jersey Bounce -Les Brown
TTITLE5=Jingle, Jangle, Jingle - Louis Nunley
TTITLE6=Don't sit under the Apple Tree - Marlyn King
TTITLE7=But Not for me - Rosemary Clooney
TTITLE8=Frenesi - Les Brown
TTITLE9=Sleppy Lagoon - Harry James
EXTD=YEAR: 1990
EXTT0=
EXTT1=
EXTT2=
EXTT3=
EXTT4=
EXTT5=
EXTT6=
EXTT7=
EXTT8=
EXTT9=
PLAYORDER=
